<svg width="12" height="12" viewBox="0 0 12 12" fill="none" xmlns="http://www.w3.org/2000/svg">
<path d="M4.58798 0.195069C4.66243 0.278356 4.70804 0.38016 4.71894 0.487402C4.72984 0.594645 4.70554 0.702428 4.64916 0.796905C4.20683 1.54138 3.97594 2.37602 3.97778 3.22389C3.97778 6.04438 6.48435 8.32827 9.57359 8.32827C9.97733 8.3278 10.3681 8.29039 10.7458 8.21604C10.8614 8.19336 10.9816 8.20227 11.0917 8.24167C11.2018 8.28107 11.2969 8.34922 11.3652 8.43769C11.4374 8.52976 11.4743 8.64123 11.47 8.7546C11.4657 8.86797 11.4205 8.97683 11.3415 9.06408C10.7417 9.73983 9.98513 10.2843 9.12686 10.6578C8.2686 11.0313 7.3303 11.2244 6.38035 11.2231C2.85525 11.2231 0 8.61796 0 5.40817C0 2.99241 1.6165 0.920358 3.91814 0.0421554C4.03275 -0.00252633 4.1601 -0.0117722 4.28095 0.015815C4.40179 0.0434022 4.50957 0.106323 4.58798 0.195069ZM3.71474 0.919657C2.82977 1.35519 2.08995 2.0025 1.57389 2.79282C1.05782 3.58313 0.784781 4.48692 0.78378 5.40817C0.78378 8.22796 3.29111 10.5118 6.38035 10.5118C7.1201 10.5129 7.85273 10.3794 8.53588 10.1191C9.21904 9.85877 9.83917 9.47683 10.3604 8.99534C10.1025 9.0248 9.8402 9.03953 9.57359 9.03953C6.04849 9.03953 3.194 6.43438 3.194 3.22459C3.194 2.40601 3.37905 1.62671 3.71474 0.919657Z" fill="black"/>
</svg>
